<mxfile host="app.diagrams.net" modified="2021-06-21T09:38:44.457Z" agent="5.0 (Windows NT 10.0; Win64; x64) AppleWebKit/537.36 (KHTML, like Gecko) Chrome/91.0.4472.114 Safari/537.36" etag="RDfJSdM4wu4ve7ZCDmgq" version="14.7.10" type="github">
  <diagram id="iU60VW-oTd55jks2_w3f" name="Page-1">
    <mxGraphModel dx="1038" dy="547" grid="1" gridSize="10" guides="1" tooltips="1" connect="1" arrows="1" fold="1" page="1" pageScale="1" pageWidth="827" pageHeight="1169" math="0" shadow="0">
      <root>
        <mxCell id="0" />
        <mxCell id="1" parent="0" />
        <mxCell id="BlneTvYbFZC1RkFTpnax-4" style="edgeStyle=orthogonalEdgeStyle;rounded=0;orthogonalLoop=1;jettySize=auto;html=1;exitX=0.5;exitY=1;exitDx=0;exitDy=0;entryX=0.5;entryY=0;entryDx=0;entryDy=0;fontSize=11;strokeWidth=0.5;" edge="1" parent="1" source="MRWx4F5newQ2WnfSYMpT-1" target="MRWx4F5newQ2WnfSYMpT-2">
          <mxGeometry relative="1" as="geometry" />
        </mxCell>
        <mxCell id="MRWx4F5newQ2WnfSYMpT-1" value="Начало" style="rounded=1;whiteSpace=wrap;html=1;fontSize=11;strokeWidth=0.5;arcSize=50;" parent="1" vertex="1">
          <mxGeometry x="354" width="142" height="40.87" as="geometry" />
        </mxCell>
        <mxCell id="BlneTvYbFZC1RkFTpnax-5" style="edgeStyle=orthogonalEdgeStyle;rounded=0;orthogonalLoop=1;jettySize=auto;html=1;exitX=0.5;exitY=1;exitDx=0;exitDy=0;entryX=0.5;entryY=0;entryDx=0;entryDy=0;fontSize=11;strokeWidth=0.5;" edge="1" parent="1" source="MRWx4F5newQ2WnfSYMpT-2" target="MRWx4F5newQ2WnfSYMpT-15">
          <mxGeometry relative="1" as="geometry" />
        </mxCell>
        <mxCell id="MRWx4F5newQ2WnfSYMpT-2" value="Считываем номер станции из формы" style="rounded=0;whiteSpace=wrap;html=1;fontSize=11;strokeWidth=0.5;" parent="1" vertex="1">
          <mxGeometry x="354" y="80" width="142" height="95" as="geometry" />
        </mxCell>
        <mxCell id="MRWx4F5newQ2WnfSYMpT-4" value="Конец" style="rounded=1;whiteSpace=wrap;html=1;fontSize=11;strokeWidth=0.5;arcSize=50;" parent="1" vertex="1">
          <mxGeometry x="354" y="640" width="142" height="40.87" as="geometry" />
        </mxCell>
        <mxCell id="BlneTvYbFZC1RkFTpnax-6" style="edgeStyle=orthogonalEdgeStyle;rounded=0;orthogonalLoop=1;jettySize=auto;html=1;exitX=0.5;exitY=1;exitDx=0;exitDy=0;entryX=0.5;entryY=0;entryDx=0;entryDy=0;fontSize=11;strokeWidth=0.5;" edge="1" parent="1" source="MRWx4F5newQ2WnfSYMpT-15" target="MRWx4F5newQ2WnfSYMpT-20">
          <mxGeometry relative="1" as="geometry" />
        </mxCell>
        <mxCell id="MRWx4F5newQ2WnfSYMpT-15" value="Выполняем запрос к базе данных, получаем объекты из каждой таблицы для конкретной станции" style="rounded=0;whiteSpace=wrap;html=1;fontSize=11;strokeWidth=0.5;" parent="1" vertex="1">
          <mxGeometry x="354" y="220" width="142" height="95" as="geometry" />
        </mxCell>
        <mxCell id="BlneTvYbFZC1RkFTpnax-7" style="edgeStyle=orthogonalEdgeStyle;rounded=0;orthogonalLoop=1;jettySize=auto;html=1;exitX=0.5;exitY=1;exitDx=0;exitDy=0;entryX=0.5;entryY=0;entryDx=0;entryDy=0;fontSize=11;strokeWidth=0.5;" edge="1" parent="1" source="MRWx4F5newQ2WnfSYMpT-20" target="MRWx4F5newQ2WnfSYMpT-21">
          <mxGeometry relative="1" as="geometry" />
        </mxCell>
        <mxCell id="MRWx4F5newQ2WnfSYMpT-20" value="Выполняем функцию render(), заполняем шаблон данными, создаем HttpResponse для отправки браузеру" style="rounded=0;whiteSpace=wrap;html=1;fontSize=11;strokeWidth=0.5;" parent="1" vertex="1">
          <mxGeometry x="354" y="360" width="142" height="95" as="geometry" />
        </mxCell>
        <mxCell id="BlneTvYbFZC1RkFTpnax-8" style="edgeStyle=orthogonalEdgeStyle;rounded=0;orthogonalLoop=1;jettySize=auto;html=1;exitX=0.5;exitY=1;exitDx=0;exitDy=0;entryX=0.5;entryY=0;entryDx=0;entryDy=0;fontSize=11;strokeWidth=0.5;" edge="1" parent="1" source="MRWx4F5newQ2WnfSYMpT-21" target="MRWx4F5newQ2WnfSYMpT-4">
          <mxGeometry relative="1" as="geometry" />
        </mxCell>
        <mxCell id="MRWx4F5newQ2WnfSYMpT-21" value="Вывод заполненного шаблона&amp;nbsp;" style="shape=parallelogram;perimeter=parallelogramPerimeter;whiteSpace=wrap;html=1;fixedSize=1;fontSize=11;strokeWidth=0.5;" parent="1" vertex="1">
          <mxGeometry x="354" y="500" width="142" height="95" as="geometry" />
        </mxCell>
        <mxCell id="MRWx4F5newQ2WnfSYMpT-23" style="edgeStyle=orthogonalEdgeStyle;rounded=0;orthogonalLoop=1;jettySize=auto;html=1;exitX=0.5;exitY=1;exitDx=0;exitDy=0;fontSize=11;strokeWidth=0.5;" parent="1" source="MRWx4F5newQ2WnfSYMpT-4" target="MRWx4F5newQ2WnfSYMpT-4" edge="1">
          <mxGeometry relative="1" as="geometry" />
        </mxCell>
      </root>
    </mxGraphModel>
  </diagram>
</mxfile>
